<svg width="186" height="186" viewBox="0 0 186 186" fill="none" xmlns="http://www.w3.org/2000/svg">
<circle cx="93" cy="93" r="93" fill="#FFD140"/>
<path d="M33.6533 46.2803C47.2399 45.8803 59.6666 49.2403 72.2799 53.947C88.1333 60.707 102.64 69.9337 114.373 82.6537C122.867 86.2403 132.627 87.6537 141.48 90.4137C154.387 94.4537 168.36 97.0803 178.853 106.187C181.933 108.24 179.48 112.867 176.427 113.307C174.12 113.547 171.667 112.56 169.427 111.987C153.227 107.934 137.773 99.547 122.32 92.9737C128.573 102.52 133.067 112.827 131.027 124.507C133.293 127.6 136.12 129.667 135.56 133.947C135.227 139.347 130.12 142.627 125.68 144.667C120.493 147.147 115.013 146.894 109.4 146.8C96.3866 158.934 76.3866 161.427 60.4533 153.88C55.6666 151.68 53.4666 145.054 55.8133 140.387C56.9466 137.627 59.1199 136.16 61.2533 134.227C51.5333 129.427 40.9599 124.774 32.9333 117.44C28.7599 113.534 24.8666 108.734 22.7999 103.36C20.5066 97.6537 21.7199 90.827 25.9999 86.3603C29.4933 82.9603 28.5999 78.6003 33.0799 76.0803C38.4399 73.0403 46.0799 73.6537 51.5999 76.067C55.2133 77.6003 59.5599 77.3337 63.4666 77.547C53.5333 74.107 43.8266 71.6937 34.5333 66.467C30.7866 64.3337 25.9866 62.4803 23.5466 58.8137C21.5999 55.987 21.9733 52.4003 24.2266 49.8803C26.4399 47.427 30.5333 46.7337 33.6533 46.2803Z" fill="#111111"/>
<path d="M33.6533 46.2803C47.2399 45.8803 59.6666 49.2403 72.2799 53.947C88.1333 60.707 102.64 69.9337 114.373 82.6537C122.867 86.2403 132.627 87.6537 141.48 90.4137C154.387 94.4537 168.36 97.0803 178.853 106.187C181.933 108.24 179.48 112.867 176.427 113.307C174.12 113.547 171.667 112.56 169.427 111.987C153.227 107.934 137.773 99.547 122.32 92.9737C128.573 102.52 133.067 112.827 131.027 124.507C133.293 127.6 136.12 129.667 135.56 133.947C135.227 139.347 130.12 142.627 125.68 144.667C120.493 147.147 115.013 146.894 109.4 146.8C96.3866 158.934 76.3866 161.427 60.4533 153.88C55.6666 151.68 53.4666 145.054 55.8133 140.387C56.9466 137.627 59.1199 136.16 61.2533 134.227C51.5333 129.427 40.9599 124.774 32.9333 117.44C28.7599 113.534 24.8666 108.734 22.7999 103.36C20.5066 97.6537 21.7199 90.827 25.9999 86.3603C29.4933 82.9603 28.5999 78.6003 33.0799 76.0803C38.4399 73.0403 46.0799 73.6537 51.5999 76.067C55.2133 77.6003 59.5599 77.3337 63.4666 77.547C53.5333 74.107 43.8266 71.6937 34.5333 66.467C30.7866 64.3337 25.9866 62.4803 23.5466 58.8137C21.5999 55.987 21.9733 52.4003 24.2266 49.8803C26.4399 47.427 30.5333 46.7337 33.6533 46.2803Z" fill="#111111"/>
<path d="M29.2793 53.84C36.6793 52.6933 43.7726 53.72 51.026 55.2666C68.106 58.8666 83.4793 67.2533 97.0126 78.12C91.7593 77.3333 86.7326 75.7466 81.6393 74.2666C65.2526 69.4 49.6126 65.0666 34.266 57.3866C32.426 56.4266 30.8793 55.1333 29.2793 53.84Z" fill="#FFD140"/>
<path d="M51.0133 83.0935C59.1867 86.7335 60.5867 95.4935 62.0133 103.347C52.5467 99.4002 42.92 93.6002 36.3467 85.6002C40.9333 84.1735 46.2 82.6135 51.0133 83.0935Z" fill="#FFD140"/>
<path d="M62.96 83.8398C66.0533 84.1465 69.0933 84.6932 72.1466 85.2265C73.9066 93.1332 79.2533 97.8265 84.76 103.267C81.28 102.413 77.16 100.933 73.5866 101.64C71.7066 102.84 71.6266 104.6 70.9466 106.533C69.8266 106.16 68.7066 105.787 67.5866 105.4C67.9066 96.7332 66.92 91.4665 62.96 83.8398Z" fill="#FFD140"/>
<path d="M80.0938 87.0664C91.1871 90.3997 102.8 95.0264 111.774 102.52C114.44 104.6 116.08 107.08 117.494 110.133C115.747 111.08 113.987 112.026 112.227 112.973C101.414 104.533 87.1871 98.6797 80.0938 87.0664Z" fill="#FFD140"/>
<path d="M104.561 88.5067C107.134 87.6267 110.534 89.7601 110.987 92.4801C109.001 91.9734 105.241 90.5334 104.561 88.5067Z" fill="#FFD140"/>
<path d="M29.8271 89.8398C37.3204 101.333 51.2804 107.227 63.6271 111.947C69.6137 114.307 77.3204 114.533 81.5071 119.507C88.3871 126.067 96.3604 131.293 105.12 135.013C92.5204 135.6 80.1737 133.08 68.5737 128.213C54.8271 122.6 41.6937 116.72 32.2804 104.707C28.9604 100.24 26.5604 95.1198 29.8271 89.8398Z" fill="#FFD140"/>
<path d="M123.039 112.8C123.479 115.08 123.826 117.373 124.159 119.666C122.479 118.813 120.813 117.973 119.133 117.12C120.426 115.68 121.719 114.226 123.039 112.8Z" fill="#FFD140"/>
<path d="M92.9727 119.467C98.1727 120.013 103.373 120.067 108.586 120.04C111.599 123.16 114.373 126.427 116.613 130.147C108.119 129.173 99.8793 124.293 92.9727 119.467Z" fill="#FFD140"/>
<path d="M128.747 130.28C129.387 131.587 130 132.894 130.614 134.2C128.12 139.734 119.92 141.094 114.547 141.374C118.854 139.094 122.96 137.054 126.307 133.4C127.134 132.374 127.947 131.32 128.747 130.28Z" fill="#FFD140"/>
<path d="M83.6534 141.213C90.4534 142.28 96.84 144.64 103.547 146.093C91.2667 154.013 75.84 156.026 62.68 149C58.7734 146.76 58.7467 141.093 62.76 139C69.9334 135.546 76.4 140.04 83.6534 141.213Z" fill="#FFD140"/>
</svg>
