<svg width="1332" height="126" viewBox="0 0 1332 126" fill="none" xmlns="http://www.w3.org/2000/svg">
<g clip-path="url(#clip0_20_3)">
<path d="M22.6533 8.28009C36.2399 7.88009 48.6666 11.2401 61.2799 15.9468C77.1333 22.7068 91.6399 31.9334 103.373 44.6534C111.867 48.2401 121.627 49.6534 130.48 52.4134C143.387 56.4534 157.36 59.0801 167.853 68.1868C170.933 70.2401 168.48 74.8668 165.427 75.3068C163.12 75.5468 160.667 74.5601 158.427 73.9868C142.227 69.9334 126.773 61.5468 111.32 54.9734C117.573 64.5201 122.067 74.8268 120.027 86.5068C122.293 89.6001 125.12 91.6668 124.56 95.9468C124.227 101.347 119.12 104.627 114.68 106.667C109.493 109.147 104.013 108.893 98.3999 108.8C85.3866 120.933 65.3866 123.427 49.4533 115.88C44.6666 113.68 42.4666 107.053 44.8133 102.387C45.9466 99.6268 48.1199 98.1601 50.2533 96.2268C40.5333 91.4268 29.9599 86.7734 21.9333 79.4401C17.7599 75.5334 13.8666 70.7334 11.7999 65.3601C9.50659 59.6534 10.7199 52.8268 14.9999 48.3601C18.4933 44.9601 17.5999 40.6001 22.0799 38.0801C27.4399 35.0401 35.0799 35.6534 40.5999 38.0668C44.2133 39.6001 48.5599 39.3334 52.4666 39.5468C42.5333 36.1068 32.8266 33.6934 23.5333 28.4668C19.7866 26.3334 14.9866 24.4801 12.5466 20.8134C10.5999 17.9868 10.9733 14.4001 13.2266 11.8801C15.4399 9.42676 19.5333 8.73342 22.6533 8.28009Z" fill="#322625"/>
<path d="M22.6533 8.28009C36.2399 7.88009 48.6666 11.2401 61.2799 15.9468C77.1333 22.7068 91.6399 31.9334 103.373 44.6534C111.867 48.2401 121.627 49.6534 130.48 52.4134C143.387 56.4534 157.36 59.0801 167.853 68.1868C170.933 70.2401 168.48 74.8668 165.427 75.3068C163.12 75.5468 160.667 74.5601 158.427 73.9868C142.227 69.9334 126.773 61.5468 111.32 54.9734C117.573 64.5201 122.067 74.8268 120.027 86.5068C122.293 89.6001 125.12 91.6668 124.56 95.9468C124.227 101.347 119.12 104.627 114.68 106.667C109.493 109.147 104.013 108.893 98.3999 108.8C85.3866 120.933 65.3866 123.427 49.4533 115.88C44.6666 113.68 42.4666 107.053 44.8133 102.387C45.9466 99.6268 48.1199 98.1601 50.2533 96.2268C40.5333 91.4268 29.9599 86.7734 21.9333 79.4401C17.7599 75.5334 13.8666 70.7334 11.7999 65.3601C9.50659 59.6534 10.7199 52.8268 14.9999 48.3601C18.4933 44.9601 17.5999 40.6001 22.0799 38.0801C27.4399 35.0401 35.0799 35.6534 40.5999 38.0668C44.2133 39.6001 48.5599 39.3334 52.4666 39.5468C42.5333 36.1068 32.8266 33.6934 23.5333 28.4668C19.7866 26.3334 14.9866 24.4801 12.5466 20.8134C10.5999 17.9868 10.9733 14.4001 13.2266 11.8801C15.4399 9.42676 19.5333 8.73342 22.6533 8.28009Z" fill="#322625"/>
<path d="M18.2798 15.84C25.6798 14.6933 32.7731 15.72 40.0265 17.2666C57.1065 20.8666 72.4798 29.2533 86.0131 40.12C80.7598 39.3333 75.7331 37.7466 70.6398 36.2666C54.2531 31.4 38.6131 27.0666 23.2665 19.3866C21.4265 18.4266 19.8798 17.1333 18.2798 15.84Z" fill="#FFD140"/>
<path d="M334.867 26.84C343.16 25.56 351.827 26.9467 358.587 32.1334C367.92 38.8134 371.854 50.32 372.76 61.3334C373.96 74.0667 371.454 88.7334 362.134 98.1334C352.134 108.32 335.147 110.093 323.4 101.92C315 96.4667 310.44 86.9467 308.747 77.3334C307.147 66.04 307.387 54.8267 312.374 44.36C316.547 35.3734 324.987 28.4134 334.867 26.84Z" fill="#322625"/>
<path d="M449.4 26.7066C459.04 28.1466 466.547 34.1866 471.573 42.3333C467.173 44.9866 462.787 47.6533 458.387 50.2933C455.36 46.9066 452.693 43.4266 448.053 42.2666C444.373 41.6799 440.587 41.5466 437.893 44.5733C434.493 47.9466 436.24 53.7866 440.547 55.4666C447.76 58.3999 456.36 60.4533 462.867 65.0933C466.707 67.8266 470.547 71.2533 472.32 75.7466C474.813 82.5066 474.093 90.5733 469.787 96.4533C464.213 104.267 453.333 108.04 444.013 107.64C431.76 107.613 419.947 99.9466 415.613 88.3599C420.173 85.9333 424.733 83.4933 429.307 81.0933C430.92 83.4266 432.533 86.0266 434.693 87.8799C438.693 91.9599 447.493 92.6666 452.08 89.4133C456.693 86.4399 455.653 79.3866 451.067 76.9599C442.867 72.1333 432.96 71.1199 425.133 64.2133C417.16 57.4399 415.933 43.9999 422.613 35.9466C428.573 28.3466 440.147 25.3066 449.4 26.7066Z" fill="#322625"/>
<path d="M483.44 26.6667C489.347 26.6667 495.24 26.6667 501.147 26.6801C501.093 36.9467 501.213 47.2267 501.067 57.4934C502.907 55.1067 504.547 52.8001 506.987 50.9601C514.573 45.3601 526.213 45.7201 533.2 52.1867C539.307 57.2934 540.907 65.7468 541.093 73.3201C541.2 84.2001 541.093 95.0934 541.133 105.987C535.24 106.013 529.333 106 523.44 105.987C523.387 95.0934 523.507 84.2001 523.4 73.3067C523.2 69.1067 522.813 64.8534 518.48 62.9334C510.253 59.9334 499.96 68.7734 501.093 77.3334C501.16 86.8801 501.133 96.4401 501.133 105.987C495.24 106.013 489.347 106 483.453 105.987C483.44 79.5467 483.467 53.1067 483.44 26.6667Z" fill="#322625"/>
<path d="M664.827 26.6667C670.72 26.6667 676.627 26.6667 682.534 26.6667C682.534 53.1067 682.52 79.5467 682.534 105.987C676.614 106.013 670.707 106.013 664.787 105.987C664.84 104.253 664.894 102.533 664.947 100.8C662.64 102.853 660.614 104.88 657.587 105.84C644.72 109.92 630.36 103.68 624.36 91.6534C618.707 79.5201 620.134 63.6667 630.227 54.2267C636.494 49.0667 645.147 45.4134 653.374 47.0001C657.867 47.4667 661.507 49.7601 664.734 52.8001C664.934 44.0934 664.774 35.3867 664.827 26.6667Z" fill="#322625"/>
<path d="M957.667 29.5732C955.733 33.5866 953.76 37.5599 951.773 41.5332C948.547 40.8666 945.213 39.6666 941.973 40.9199C939.253 42.5332 939.813 44.9466 939.44 47.6399C943.533 47.6666 947.627 47.6666 951.72 47.6799C951.72 52.5599 951.72 57.4532 951.72 62.3332C947.693 62.3332 943.667 62.3332 939.64 62.3466C939.52 76.9332 939.84 91.5332 939.48 106.107C933.587 105.92 927.707 106.013 921.827 106C921.787 91.4532 921.827 76.9066 921.8 62.3466C919.16 62.3332 916.52 62.3332 913.867 62.3199C913.867 57.4399 913.867 52.5466 913.88 47.6666C916.493 47.6666 919.107 47.6532 921.707 47.6532C921.547 40.3732 922.893 33.5466 929.213 29.1466C937.44 23.9199 949.347 25.1066 957.667 29.5732Z" fill="#322625"/>
<path d="M247.96 27.6667C261.813 27.6534 275.667 27.6534 289.507 27.6801C289.52 32.7867 289.52 37.8934 289.493 42.9867C280.426 43.0134 271.36 43.0134 262.306 43.0001C261.76 46.8534 261.227 50.7201 260.627 54.5734C274.747 48.0134 292.267 56.2267 296.853 70.9067C300.973 83.1201 296.12 97.1734 284.386 103.053C269.613 111.227 247.96 106.72 240.493 90.7067C245.066 88.2667 249.613 85.8001 254.213 83.4267C256.387 86.2001 258.32 88.8134 261.653 90.2667C266.4 92.2267 272.48 91.6667 276.653 88.6267C281.533 84.7201 281.573 76.0534 278.027 71.2934C272.547 65.3334 262.907 65.7734 257.4 71.56C252.507 70 247.667 68.3067 242.8 66.6534C244.52 53.6667 246.227 40.6667 247.96 27.6667Z" fill="#322625"/>
<path d="M1030.99 27.8933L1031.79 27.84C1037.09 27.4667 1042.39 27.72 1047.73 27.68C1059.33 53.7867 1070.96 79.88 1082.55 106C1076.19 106.013 1069.81 105.987 1063.44 106.013C1061.57 101.667 1059.77 97.2934 1057.85 92.96C1045.6 93.0534 1033.35 92.9734 1021.09 93C1019.27 97.2667 1017.39 101.493 1015.77 105.84C1009.35 106.16 1002.89 105.947 996.427 105.987C1007.88 79.9467 1019.77 54.04 1030.99 27.8933Z" fill="#322625"/>
<path d="M1091.56 27.68C1101.92 27.7334 1112.31 27.5067 1122.67 27.7867C1133.84 28.0934 1144.17 33.5734 1151.47 41.8934C1159.93 52.32 1162.71 67.0534 1158.13 79.7467C1152.96 94.6667 1138.47 105.44 1122.68 105.987C1112.31 106.027 1101.92 105.987 1091.55 105.987C1091.55 79.8934 1091.52 53.7867 1091.56 27.68Z" fill="#322625"/>
<path d="M1171.65 27.6801C1177.65 27.6667 1183.67 27.6667 1189.67 27.6801C1189.68 37.8934 1189.65 48.1067 1189.67 58.3334C1199.57 58.3334 1209.47 58.3468 1219.37 58.3201C1219.39 48.1068 1219.36 37.8934 1219.37 27.6801C1225.37 27.6667 1231.39 27.6667 1237.39 27.6667C1237.39 53.7734 1237.43 79.8801 1237.37 105.987C1231.37 106 1225.37 106 1219.39 105.987C1219.35 95.6667 1219.39 85.3334 1219.37 75.0134C1209.47 74.9867 1199.57 75.0001 1189.67 75.0001C1189.65 85.3201 1189.67 95.6401 1189.67 105.96C1183.67 106.013 1177.65 106 1171.64 105.973C1171.67 79.8801 1171.64 53.7734 1171.65 27.6801Z" fill="#322625"/>
<path d="M1250.85 27.6799C1261.45 27.7599 1272.08 27.4666 1282.67 27.8399C1293.48 28.2799 1303.29 33.5999 1310.45 41.5333C1315.49 47.5066 1318.48 54.9066 1319.37 62.6399C1320.87 74.6933 1316.09 86.9733 1307.33 95.2799C1299.91 102.08 1290.15 106.213 1280 106.027C1270.28 105.96 1260.56 106.013 1250.84 105.987C1250.85 79.8799 1250.85 53.7866 1250.85 27.6799Z" fill="#322625"/>
<path d="M334.893 43.0266C340 40.9599 346.293 41.7866 350.16 45.8666C353.04 48.9199 354.533 53.4666 355.213 57.5332C356.267 65.0132 356.56 72.4932 354.333 79.7999C353.053 83.8132 351.093 87.6266 347.267 89.7332C341.84 92.9599 334.4 91.8799 330.24 87.0932C326.893 82.8532 325.667 77.2799 325.227 71.9999C324.667 65.1732 324.72 57.8132 327.36 51.3732C328.827 47.7332 331.173 44.5466 334.893 43.0266Z" fill="#FFD140"/>
<path d="M40.0133 45.0933C48.1867 48.7333 49.5867 57.4933 51.0133 65.3466C41.5467 61.3999 31.92 55.5999 25.3467 47.5999C29.9333 46.1733 35.2 44.6133 40.0133 45.0933Z" fill="#FFD140"/>
<path d="M51.96 45.8401C55.0533 46.1468 58.0933 46.6934 61.1466 47.2268C62.9066 55.1334 68.2533 59.8268 73.76 65.2668C70.28 64.4134 66.16 62.9334 62.5866 63.6401C60.7066 64.8401 60.6266 66.6001 59.9466 68.5334C58.8266 68.1601 57.7066 67.7868 56.5866 67.4001C56.9066 58.7334 55.92 53.4668 51.96 45.8401Z" fill="#FFD140"/>
<path d="M1109.56 44.6799C1113.92 44.6799 1118.32 44.5333 1122.68 44.7866C1130.45 44.9066 1138.01 50.6799 1140.51 57.9866C1143.73 67.5599 1141.44 80.0666 1132.41 85.7466C1126.24 90.3066 1116.88 88.7199 1109.57 88.9999C1109.55 74.2266 1109.57 59.4533 1109.56 44.6799Z" fill="#FFD140"/>
<path d="M1268.88 44.6801C1273.48 44.6934 1278.11 44.5068 1282.69 44.8401C1290.81 45.2401 1298.51 51.8534 1300.33 59.7334C1302.71 68.7468 1300.29 80.1468 1292.09 85.4934C1285.76 90.3868 1276.45 88.6934 1268.88 89.0001C1268.87 74.2268 1268.88 59.4534 1268.88 44.6801Z" fill="#FFD140"/>
<path d="M593.84 52.88C593.813 51.1467 593.8 49.4 593.786 47.6667C599.653 47.6534 605.506 47.7067 611.373 47.6C611.613 67.0667 611.44 86.5467 611.466 106C605.573 106 599.68 106 593.786 106C593.8 104.32 593.813 102.653 593.826 100.973C586.053 109.453 571.813 108.347 562.933 102.413C547.346 92.5067 545.8 67.3867 558.693 54.7067C568.44 46.0134 583.786 42.8267 593.84 52.88Z" fill="#322625"/>
<path d="M718.64 46.8933C730.867 44.9999 743.84 51.8133 748.667 63.3066C751.44 69.7066 751.36 76.1733 750.88 82.9999C737.267 83.0533 723.653 82.9333 710.053 83.0533C711.707 86.0399 713.013 88.8266 716.24 90.4266C723.347 93.6266 731.053 92.5066 737.84 89.0399C741.267 92.0266 744.453 95.2533 747.733 98.3999C734.573 110.853 711.707 109.667 699.413 96.6266C691.213 87.5733 689.853 72.9999 695.693 62.3866C700.307 53.9333 709.36 48.5999 718.64 46.8933Z" fill="#322625"/>
<path d="M788.667 47.6267C795.92 49.7067 801.093 55.2933 803.533 62.3467C798.627 63.52 793.72 64.7333 788.813 65.96C786.56 62.8133 784.507 59.56 780.013 61.1467C776.32 62.1867 776.853 66.8667 780.067 68.1067C787.827 71.52 796.107 72.4667 802.267 79.1067C806.453 84.6 806.427 93.8667 801.773 99.1067C789.933 112.853 763.053 109.013 757.947 90.7333C762.493 89.2533 767.053 87.8267 771.627 86.4133C773.4 88.7733 774.893 91.76 777.92 92.6533C781.253 93.64 785.76 93.8 787.427 90.08C788.587 87.9733 786.787 86.4933 785.08 85.5733C778.107 81.9733 769.52 80.76 764.187 74.4933C758.72 68.52 758.733 58.3867 764.813 52.8267C770.987 47.0667 780.667 45.5333 788.667 47.6267Z" fill="#322625"/>
<path d="M870 47.4665C879.733 44.7999 890.867 48.4532 898.173 55.1332C910.92 66.4399 910.933 89.2532 897.093 99.7332C886.173 109.013 869.28 109.56 857.973 100.68C843.76 90.9332 842.267 67.8132 854.693 56.0532C858.92 51.7199 864.28 49.1999 870 47.4665Z" fill="#322625"/>
<path d="M69.0933 49.0667C80.1866 52.4 91.7999 57.0267 100.773 64.52C103.44 66.6 105.08 69.08 106.493 72.1333C104.747 73.08 102.987 74.0267 101.227 74.9733C90.4133 66.5333 76.1866 60.68 69.0933 49.0667Z" fill="#FFD140"/>
<path d="M93.5601 50.5067C96.1334 49.6267 99.5334 51.7601 99.9867 54.4801C98.0001 53.9734 94.2401 52.5334 93.5601 50.5067Z" fill="#FFD140"/>
<path d="M1039.56 49.2935C1043.6 58.9868 1047.71 68.6401 1051.76 78.3201C1043.63 78.3335 1035.49 78.3335 1027.36 78.3335C1030.88 69.7868 1034.52 61.3068 1038.09 52.7868C1038.59 51.6268 1039.07 50.4535 1039.56 49.2935Z" fill="#FFD140"/>
<path d="M18.8266 51.8401C26.3199 63.3334 40.2799 69.2268 52.6266 73.9468C58.6132 76.3068 66.3199 76.5334 70.5066 81.5068C77.3866 88.0668 85.3599 93.2934 94.1199 97.0134C81.5199 97.6001 69.1732 95.0801 57.5732 90.2134C43.8266 84.6001 30.6932 78.7201 21.2799 66.7068C17.9599 62.2401 15.5599 57.1201 18.8266 51.8401Z" fill="#FFD140"/>
<path d="M577.533 62.8934C582.733 61.5867 589.227 63.0401 592.107 67.9467C596.16 74.6001 595.28 85.2401 588.24 89.6134C580.653 94.3601 569.88 90.2001 567.88 81.3734C565.733 73.5334 568.947 64.6267 577.533 62.8934Z" fill="#FFD140"/>
<path d="M648.214 62.9734C653.467 61.5601 659.907 62.8534 663 67.6801C667.267 74.3734 666.36 85.4134 659.08 89.7334C651.534 94.3201 640.84 90.0801 638.907 81.3468C636.814 73.7068 639.867 64.8401 648.214 62.9734Z" fill="#FFD140"/>
<path d="M727.733 63.0401C731.573 64.4134 733.52 67.1468 735.347 70.6001C726.974 70.6934 718.574 70.7201 710.2 70.5868C713.334 64.1068 720.747 59.8934 727.733 63.0401Z" fill="#FFD140"/>
<path d="M873.533 62.8932C878.667 61.5199 885.053 63.3466 887.88 68.0799C892.733 75.2932 891.187 85.6399 883.24 89.9199C875.2 94.5866 865.067 88.9466 863.733 80.0666C862.333 72.8399 865.907 64.5866 873.533 62.8932Z" fill="#FFD140"/>
<path d="M112.04 74.8C112.48 77.08 112.827 79.3734 113.16 81.6667C111.48 80.8134 109.813 79.9734 108.133 79.1201C109.427 77.6801 110.72 76.2267 112.04 74.8Z" fill="#FFD140"/>
<path d="M81.9731 81.4666C87.1731 82.0132 92.3731 82.0666 97.5865 82.0399C100.6 85.1599 103.373 88.4266 105.613 92.1466C97.1198 91.1732 88.8798 86.2932 81.9731 81.4666Z" fill="#FFD140"/>
<path d="M117.747 92.28C118.387 93.5867 119 94.8934 119.614 96.2C117.12 101.733 108.92 103.093 103.547 103.373C107.854 101.093 111.96 99.0534 115.307 95.4C116.134 94.3734 116.947 93.32 117.747 92.28Z" fill="#FFD140"/>
<path d="M72.6534 103.213C79.4534 104.28 85.84 106.64 92.5467 108.093C80.2667 116.013 64.84 118.026 51.68 111C47.7734 108.76 47.7467 103.093 51.76 101C58.9334 97.5465 65.4 102.04 72.6534 103.213Z" fill="#FFD140"/>
</g>
<defs>
<clipPath id="clip0_20_3">
<rect width="1332" height="125.333" fill="white"/>
</clipPath>
</defs>
</svg>
