<svg width="818" height="1039" viewBox="0 0 818 1039" fill="none" xmlns="http://www.w3.org/2000/svg">
<path d="M85.205 0.0172254C226.525 0.0705587 367.872 0.0305717 509.205 0.0305717C520.338 -0.222762 531.352 1.07057 541.845 4.95058C558.032 10.7906 571.938 21.6306 581.845 35.6572C591.712 49.7506 597.045 67.1106 596.698 84.2972C596.698 97.1906 596.685 110.084 596.698 122.964C597.392 141.444 602.125 159.724 610.765 176.097C622.645 198.697 641.752 217.511 664.618 228.897C682.525 238.031 702.498 242.217 722.538 241.911C731.245 241.991 739.498 241.471 747.858 242.964C768.258 246.164 787.245 257.284 799.925 273.591C811.045 287.524 817.338 305.137 817.725 322.964C817.725 534.524 817.725 746.071 817.725 957.631C817.032 980.897 806.258 1003.19 788.538 1018.27C773.325 1031.36 753.272 1038.54 733.205 1038.1C654.098 1038.08 574.978 1038.07 495.872 1038.1C464.618 1037.43 435.538 1018.08 422.605 989.671C417.605 979.057 415.778 967.857 414.445 956.297C411.778 929.697 398.765 904.431 378.832 886.657C360.538 869.951 336.645 860.151 311.952 858.577C236.085 858.417 159.792 858.537 83.8717 858.511C56.685 858.991 30.1383 845.164 14.7917 822.751C4.97832 808.857 -0.0750089 791.951 0.00499106 774.964C0.0183244 543.857 -0.0216829 312.737 0.0183171 81.6306C0.364984 54.8306 14.285 29.2172 36.5116 14.2972C50.7783 4.45723 67.925 -0.289441 85.205 0.0172254Z" fill="#444444"/>
</svg>
