<svg width="888" height="500" viewBox="0 0 888 500" fill="none" xmlns="http://www.w3.org/2000/svg">
<path d="M165.787 119.613C167.867 125.827 165.04 133.893 164.267 140.28C163.173 149.907 164.453 159.773 163.573 169.44C162.6 178 163.227 186.347 163 194.973C159.6 195.667 156.213 196.413 152.827 197.2C152.72 190.52 151.48 184.013 151.707 177.333C151.907 163.667 151.813 150.08 150.333 136.48C149.48 130.48 148.04 124.587 150.467 118.72C153.293 112.92 163.76 113.253 165.787 119.613Z" fill="#322625" fill-opacity="0.52"/>
<path d="M147.28 136.933L147.44 140.32C125.12 143.067 102.84 152.907 87.1738 169.253C91.0938 173.227 95.0004 177.2 98.9338 181.147C104.307 176.427 109.774 171.893 116.067 168.413C113.587 176.013 107.187 178.413 101.48 183.6C104.52 186.8 107.96 188.6 107.907 193.573C109.48 191.52 111.28 189.533 112.587 187.293C114.76 182.467 115.24 176.053 118.347 171.72C121.987 166.627 125.547 161.987 131.787 160.04C137.387 158.307 142.72 155.96 148.24 154.04C148.307 158.2 148.32 162.36 148.254 166.52C141.254 169.107 138.614 175.4 132.56 179.173C126.84 182.96 121.44 186.667 114.507 187.827C112.907 189.947 111.347 192.093 109.814 194.253C109.04 194.293 108.267 194.333 107.494 194.373C104.614 191.707 101.734 189.053 98.8671 186.36C85.2938 201.493 76.6404 220.587 77.1071 241.173C82.8804 241.44 88.5871 241.467 94.3604 241.28C94.1071 226.133 100.254 210.773 110.387 199.587C110.307 197.973 110.227 196.36 110.147 194.733C111.587 195 113.014 195.267 114.454 195.533C124.107 186.427 136.387 180.867 149.4 178.613C149.16 179.8 148.894 180.973 148.6 182.147C145.307 183.373 141.76 183.893 138.44 185.067C130.227 188.027 122.787 192.493 116.427 198.507C120.4 202.627 124.467 206.653 128.52 210.707C126.747 213.76 124.934 216.427 124.374 220C123.627 227.347 123.254 234.213 127.627 240.573C131.88 247.333 138.827 248.773 144.014 254.48C144.854 253.787 145.707 253.08 146.547 252.387C147.547 253.067 148.534 253.747 149.534 254.427C148.654 255.387 147.774 256.347 146.894 257.307C149.374 259.667 151.76 259.947 150.534 263.973C148.52 262.867 146.534 261.707 144.574 260.533C139.734 264.093 135.694 268.213 132.107 273C134.92 274.8 137.774 276.52 140.654 278.2C140.214 279.507 139.747 280.787 139.307 282.093C135.947 279.88 132.667 277.573 129.414 275.213C125.067 279.027 121.027 283.027 117.347 287.493C122.24 291.32 127.094 295 132.787 297.547C138.894 300.48 145.334 301.893 151.92 303.307C151.8 304.453 151.694 305.587 151.587 306.72C146.627 305.707 141.574 304.773 136.774 303.173C131.014 301.213 126.08 298.093 121 294.813C119.987 295.48 118.96 296.147 117.947 296.827C116.214 296.813 114.494 296.8 112.774 296.8C111.76 297.573 110.747 298.333 109.734 299.107C105.894 298.173 105.227 299.907 102.734 302.147C108.507 306.973 114.334 311.573 121.067 315.013C130.374 320.12 141.174 322.6 151.6 324.067L151.747 327.4C142.12 326.84 132.547 324.187 123.72 320.36C115.134 316.84 107.187 310.72 100.054 304.867C95.9871 308.88 91.9071 312.893 87.9871 317.04C104.707 332.827 126.44 342.6 149.32 344.667C156.014 344.653 162.76 344.907 169.44 344.44C191.254 341.947 212.534 332.053 228.054 316.44C224.094 312.347 220.04 308.347 216.12 304.2C202.52 317.827 182.987 326.213 163.854 327.4L163.827 324.12C168.6 323.4 173.334 322.533 178.107 321.853C181.774 315.933 180.267 309.507 177.92 303.427C175.04 297.6 170.04 294.787 164.507 291.933C164.68 288.733 164.787 285.547 164.854 282.347C171.68 279.427 178.08 278.347 183.374 272.627C189.76 265.08 187.92 253.547 180.694 247.28C176.267 243.453 171.134 241.893 165.947 239.52C165.24 233.493 165.854 227.28 165.654 221.213C167.867 222.28 170.067 223.093 172.48 223.64C172.4 220.467 172.747 219.12 174.28 216.453C176.32 217.147 178.294 218.307 180.467 217.907C182.307 216.467 183.894 214.613 185.507 212.933C182.334 213.453 179.227 214.28 176.054 214.773C179.054 213.187 181.68 211.133 184.36 209.053C185.694 209.36 187 209.733 188.307 210.187C191.934 206.627 195.547 203.04 199.054 199.347C199.787 197.187 200.547 195.04 201.32 192.907C203.707 193.36 205.04 193.107 207.267 192.253C207.28 190.467 207.294 188.693 207.307 186.907C206.187 185.44 205.067 183.973 203.947 182.507C203.947 175.373 202.614 170.84 199.014 164.733C203.6 163.44 206.614 166.04 210.254 168.36C213.627 170.32 214.04 174.28 215.334 177.667C216.374 178.2 217.427 178.747 218.48 179.293C221.974 175.76 225.494 172.253 228.974 168.72C222.72 163.16 216.454 157.787 209.16 153.587C199.694 147.693 189.227 144.293 178.467 141.627C175.04 140.773 171.574 140.547 168.08 140.387C168.214 138.987 168.347 137.573 168.467 136.173C178.8 137.84 188.894 140.027 198.547 144.187C208.987 148.613 218.52 154.8 227.214 162.04C244.96 177.92 257.454 199.92 261.574 223.4C263.12 232.027 262.92 240.613 262.787 249.347C260.867 286.613 237.374 321.04 203.934 337.293C190.947 344.067 175.854 347.227 161.334 348.093C137.6 348.813 113.44 341.227 94.5204 326.827C74.2671 311.667 59.9071 288.747 54.7871 264C52.4004 253.24 52.7071 242.84 53.0404 231.853C55.5871 206.08 67.4404 181.493 86.6671 164.04C102.907 148.92 125.227 139.053 147.28 136.933Z" fill="#322625" fill-opacity="0.52"/>
<path d="M79.2535 140.347C76.1469 143.747 72.9469 146.627 70.6535 150.64C67.1602 156.613 64.8935 162.733 59.4135 167.36C53.0269 172.613 45.8935 176.347 40.2002 182.493C43.3869 164.587 56.1869 149.173 73.0135 142.413C75.0802 141.707 77.1602 141.013 79.2535 140.347Z" fill="#322625" fill-opacity="0.52"/>
<path d="M237.014 140.76C238.28 141.147 239.547 141.547 240.8 141.947C258.627 147.933 271.294 164.6 275.094 182.68C267.16 173.947 256.667 170.88 250.24 160.44C246.307 153.413 242.507 146.733 237.014 140.76Z" fill="#322625" fill-opacity="0.52"/>
<path d="M167.44 152.427C177.573 152.907 188.186 157.307 194.84 165.16C203.76 175.853 201.733 194.213 189.92 202C180.12 208.84 169.546 210 158.346 213.133C153 214.653 147.04 216.28 143.293 220.653C141.066 222.92 140.92 226.307 141.546 229.24C143.026 233.187 146.826 235.413 150.053 237.787C150.066 241.933 150.026 246.093 149.933 250.24C141.746 247.36 133.533 244.373 129.186 236.213C124.533 228.107 126.666 216.88 132.893 210.213C141.506 202.267 155.56 200.227 166.613 197.293C171.733 195.96 177.053 193.893 181.226 190.573C187 185.853 187.16 176.44 182.36 171C178.306 166.787 173.04 165.067 167.346 164.467C167.333 160.453 167.186 156.427 167.44 152.427Z" fill="#322625" fill-opacity="0.52"/>
<path d="M42.9602 158.027C35.5068 170.667 37.2002 182.827 33.7068 196.667C36.6002 192.747 39.3202 188.88 42.9602 185.587C50.6402 178.573 60.3202 174.987 68.0535 167.987C65.0668 178.213 57.9868 186.027 49.3068 191.893C40.2402 197.96 30.5468 207.08 27.6135 217.92C27.3202 211.507 26.6002 205.12 26.1068 198.72C25.4135 189.027 27.2668 179.04 31.8935 170.453C34.6935 165.307 38.7735 161.947 42.9602 158.027Z" fill="#322625" fill-opacity="0.52"/>
<path d="M508.386 159.08C512.906 158.707 517.493 158.933 522.026 158.96C522.066 186.387 522.053 213.8 522.04 241.227C517.44 241.253 512.84 241.253 508.24 241.227C508.333 213.893 508 186.387 508.386 159.08Z" fill="#322625" fill-opacity="0.52"/>
<path d="M563.014 159.067C567.534 158.72 572.12 158.933 576.654 158.947C576.654 181.08 576.68 203.2 576.627 225.333C576.507 230.667 576.6 235.933 577.534 241.2C573.32 241.253 569.12 241.267 564.907 241.24C564.374 238.88 563.827 236.52 563.307 234.147C561.614 236.507 560.28 238.8 557.654 240.253C553.974 242.573 549.72 242.387 545.547 242.093C540.747 241.693 536.64 238.053 534 234.267C529.347 225.467 527.934 214.8 529.627 205.013C530.56 198.947 532.934 192.44 537.44 188.093C545.267 181.747 556.894 182.867 562.454 191.64C563.374 180.787 562.414 169.92 563.014 159.067Z" fill="#322625" fill-opacity="0.52"/>
<path d="M779.627 158.947C784.24 158.92 788.867 158.92 793.493 158.96C793.52 186.373 793.493 213.787 793.507 241.2C788.88 241.253 784.24 241.28 779.613 241.267C779.627 213.827 779.587 186.387 779.627 158.947Z" fill="#322625" fill-opacity="0.52"/>
<path d="M837.906 159.067C842.44 158.68 847.053 158.92 851.6 158.947C851.533 169.827 851.64 180.707 851.52 191.587C854.093 188.96 856.426 185.68 860.2 184.787C866.68 182.947 874.8 184.533 878.64 190.507C880.76 194.213 882.04 198.36 881.96 202.653C881.933 215.52 881.92 228.373 881.933 241.227C877.346 241.24 872.746 241.253 868.146 241.267C868.053 229.28 868.12 217.307 868.12 205.32C868.213 202.12 867.12 199.347 865.96 196.44C863.64 195.987 860.693 194.773 858.386 195.6C854.106 196.84 851.533 200.8 851.6 205.2C851.48 217.2 851.586 229.213 851.613 241.213C846.986 241.267 842.36 241.267 837.733 241.24C837.866 213.893 837.466 186.387 837.906 159.067Z" fill="#322625" fill-opacity="0.52"/>
<path d="M207.413 162.187C208.547 163.427 209.653 164.707 210.707 166C208.16 165.2 205.84 164.213 203.613 162.733C204.867 162.52 206.147 162.333 207.413 162.187Z" fill="#322625" fill-opacity="0.52"/>
<path d="M272.52 157.76C274.68 159.853 276.827 161.947 278.96 164.067C286.907 172.24 289.04 183.667 289.547 194.64C288.92 202.04 288.707 209.427 287.427 216.733C284.734 206.707 275.8 198.227 267.4 192.613C258.387 186.6 250.827 178.787 247.627 168.173C254.507 174.147 262.854 177.707 269.88 183.44C274.76 187.093 278.32 191.773 281.814 196.693C279.187 186.707 279.68 176.493 276.6 166.56C275.307 163.6 273.947 160.667 272.52 157.76Z" fill="#322625" fill-opacity="0.52"/>
<path d="M334.84 165.08C339.053 164.773 343.32 164.947 347.547 164.907C351.427 184.2 354.36 203.72 358.6 222.947C362.293 203.613 366.413 184.32 369.773 164.933C375.533 164.947 381.306 164.96 387.066 165C391.093 184.4 394.266 203.987 398.533 223.333C402.333 203.88 405.88 184.36 409.653 164.893C413.893 164.933 418.133 164.947 422.373 164.973C417.427 190.24 411.986 215.507 407.026 240.773C401.48 241.947 395.36 241.04 389.693 241.267C387.68 227.44 384.453 213.813 382.373 200C380.88 193.867 380.627 187.253 378.187 181.52C373.773 201.293 370.506 221.347 366.533 241.213C360.906 241.293 355.28 241.28 349.64 241.267C346.28 221.613 341.667 202.133 338.04 182.52C337.067 176.773 334.973 170.893 334.84 165.08Z" fill="#322625" fill-opacity="0.52"/>
<path d="M616.627 164.907C621.52 164.92 626.4 164.933 631.293 164.947C631.347 175.333 631.28 185.733 631.333 196.12C638.533 196.32 645.733 196.267 652.933 196.2C653.093 185.787 652.933 175.373 653.027 164.96C657.907 164.947 662.8 164.933 667.68 164.92C667.747 190.36 667.707 215.8 667.72 241.227C662.813 241.253 657.92 241.267 653.013 241.227C653 229.973 653.027 218.72 652.96 207.467C645.76 207.413 638.56 207.4 631.36 207.493C631.267 218.733 631.333 229.987 631.333 241.227C626.427 241.267 621.52 241.28 616.627 241.253C616.6 215.8 616.587 190.36 616.627 164.907Z" fill="#322625" fill-opacity="0.52"/>
<path d="M130.466 169C128.4 171.467 126.253 173.413 123.56 175.173C125.333 171.707 125.773 168.96 130.466 169Z" fill="white"/>
<path d="M822.107 169.253C822.093 174.453 822.08 179.64 822.12 184.827C825.853 184.867 829.586 184.88 833.333 184.893C833.373 188.36 833.333 191.827 833.253 195.293C829.547 195.28 825.853 195.293 822.16 195.32C822.053 203.547 822.107 211.773 822.027 220C821.907 223.92 822.706 227.667 823.64 231.453C827.04 231.76 830.173 231.693 833.56 231.187C833.453 234.467 833.347 237.747 833.2 241.013C826.987 242.413 818.253 243.72 813.173 238.88C809.133 235.573 808.946 230.2 808.413 225.387C808.013 215.387 808.426 205.347 808.24 195.347C805.36 195.307 802.48 195.267 799.6 195.213C799.587 191.787 799.587 188.36 799.6 184.933C802.48 184.907 805.36 184.867 808.24 184.827C808.253 181.133 808.067 177.347 808.507 173.667C812.747 171.613 817.64 170.8 822.107 169.253Z" fill="#322625" fill-opacity="0.52"/>
<path d="M84.1196 171.627C88.2396 175.347 92.0796 179.413 96.0529 183.293C93.3729 187.053 90.3863 190.587 87.6929 194.333C81.6663 203.16 77.8396 212.987 75.1996 223.307C73.7063 229.28 73.9729 235.373 72.7063 241.4C67.2529 241.427 61.8129 241.373 56.3596 241.2C55.8929 215.24 66.4263 190.427 84.1196 171.627Z" fill="white"/>
<path d="M231.667 171.6C238.907 179.667 245.133 188.32 249.867 198.107C255.813 211.427 259.92 226.587 259.32 241.253C253.8 241.4 248.307 241.413 242.787 241.293C241.653 234.613 242.013 227.96 239.973 221.387C238.613 214.533 234.933 208.6 233.893 201.693C231.533 193.213 224.053 190.92 219.653 183.24C223.68 179.387 227.467 175.227 231.667 171.6Z" fill="white"/>
<path d="M167.214 178.787C172.814 178.88 177.56 180.907 182.574 183.12C181.894 184.12 181.2 185.107 180.52 186.107C175.907 184.08 171.267 182.787 166.32 181.893C166.6 180.853 166.907 179.813 167.214 178.787Z" fill="#322625" fill-opacity="0.52"/>
<path d="M22.3332 183.413C18.0932 198.987 24.1732 216.72 25.9865 232.373C26.5732 224.933 30.2665 219.107 34.4265 213.16C39.8799 205.547 47.8799 201.24 54.1865 194.12C51.9199 199.427 50.3465 205.187 47.5865 210.24C43.1599 217.76 37.9199 224.467 32.5865 231.32C28.8932 236.013 26.6399 241.187 25.3465 246.987C21.1865 236.48 15.3065 228.4 13.3199 217.107C12.6265 211.387 12.6132 205.187 14.3732 199.653C16.1332 193.653 19.3199 188.827 22.3332 183.413Z" fill="#322625" fill-opacity="0.52"/>
<path d="M293.72 183.533C298.214 192.467 302.894 200.267 302.72 210.667C302.92 224.507 294.92 234.8 290.414 246.96C288.814 242.48 287.107 238.12 284.547 234.08C279.934 226.6 273.867 220.76 269.56 213.12C266.214 207.333 263.774 201.173 261.48 194.907C267.12 200.227 273.64 204.76 278.76 210.573C284.067 216.493 287.24 223.893 290 231.267C291.2 219.413 294.2 208.013 294.707 196.04C294.6 191.867 293.974 187.707 293.72 183.533Z" fill="#322625" fill-opacity="0.52"/>
<path d="M437.573 184.333C445.813 183.347 454.933 184.893 460.44 191.68C467.213 199.733 466.973 210.213 466.293 220.147C465.306 226.613 463.146 233.627 457.48 237.52C451.706 242.2 444.653 242.6 437.546 242.013C432.186 241.147 426.466 238.667 423.213 234.133C418.44 228.373 417.24 220.573 417.066 213.333C417.28 207.093 418.306 200.28 421.333 194.747C424.92 189.04 430.933 185.32 437.573 184.333Z" fill="#322625" fill-opacity="0.52"/>
<path d="M472.76 185.053C477.013 184.72 481.333 184.907 485.6 184.947C485.653 188.187 485.706 191.427 485.693 194.68C487.72 191.333 489.626 188.253 493 186.093C495.586 184.547 499.12 184.293 502.066 183.787C502.066 188.133 502.066 192.493 502.08 196.84C498.733 197.12 494.746 196.507 492.093 198.787C489.026 201.2 487.293 203.92 487.386 207.947C487.306 219.027 487.426 230.133 487.373 241.227C482.76 241.267 478.133 241.267 473.52 241.24C473.56 226.16 473.493 211.08 473.586 196C473.666 192.307 473.04 188.707 472.76 185.053Z" fill="#322625" fill-opacity="0.52"/>
<path d="M714.92 193.133C718.907 200.147 719.96 208.987 719.814 216.933C709.04 216.973 698.28 216.893 687.52 217.013C687.294 222.64 688.427 227.387 693.334 230.64C701.2 234.64 708.84 231.987 716.254 228.507C716.36 231.907 716.52 235.293 716.934 238.667C705.48 243.693 690.427 244.52 680.974 235C674.48 227.587 672.614 216.067 674.56 206.6C675.68 199.293 679.587 191.333 685.947 187.24C694.974 181.773 709.334 183.48 714.92 193.133Z" fill="#322625" fill-opacity="0.52"/>
<path d="M760.654 187.387C764.347 190.027 766.467 195.027 767.2 199.387C768.294 213.187 766.12 227.56 768.534 241.213C764.147 241.267 759.774 241.267 755.387 241.227C755.334 238.907 755.28 236.6 755.227 234.28C751.934 237.507 748.947 240.533 744.294 241.72C739.04 243 732.507 242.027 728.4 238.293C719.68 231.747 720.92 215.587 730.587 210.467C738.04 206.387 746.28 206.493 754.534 206.493C755 200.6 753.507 195.987 747.667 193.76C741.6 192.56 734.68 195.827 729.334 198.453C728.747 195.307 727.96 191.707 728.747 188.547C729.547 186.947 732.08 186.48 733.64 185.947C742.227 183.573 752.667 182.747 760.654 187.387Z" fill="#322625" fill-opacity="0.52"/>
<path d="M212.826 193.453C214.373 196.013 215.346 198.227 218.266 199.507C222.64 201.653 225.453 205.2 228.24 209.053C229.413 208.827 230.573 208.613 231.733 208.387C236.213 218.947 239.16 229.8 238.44 241.387C233.04 241.347 227.64 241.267 222.24 241.213C221.68 237.267 220.813 233.307 220.613 229.333C220.893 225.08 222.466 221.6 221.453 217.293C220.733 211.013 217.24 206.533 214.946 200.88C213.8 200.307 212.666 199.733 211.52 199.173C216.64 206.6 220.853 214.04 220.146 223.413C217.493 219.8 217.44 215.227 214.586 211.853C212.786 209.973 212.973 207.453 212.44 204.987C208.6 204.507 207.013 201.693 205.413 198.547C206.133 195.547 209.72 193.187 212.826 193.453Z" fill="white"/>
<path d="M442.707 193.32C445.12 194.533 448.427 195.8 449.76 198.28C453.227 204.72 452.987 211.333 452.627 218.44C452.213 223.32 450.587 228.84 446.267 231.653C442.76 233.907 438.4 232.36 435.56 229.773C432.147 225.76 431.773 221.053 431.76 216C431.827 209.92 431.227 202.627 434.8 197.36C436.227 194.853 440.173 194.187 442.707 193.32Z" fill="white"/>
<path d="M702.72 195.933C706.707 199.36 705.76 203.627 705.987 208.32C699.747 208.373 693.507 208.387 687.267 208.373C687.787 204.053 687.613 198.52 691.4 195.56C694.733 192.707 699.64 192.707 702.72 195.933Z" fill="white"/>
<path d="M549.56 194.92C553.387 193.507 557.147 194.48 559.547 197.8C563.547 203.707 563.067 211.92 562.733 218.733C562.24 223.413 560.48 229.76 555.547 231.533C553.067 232.08 549.933 232.12 547.707 230.773C544.293 228.2 543.08 224.187 542.947 220.053C542.813 215.133 542.707 210.16 543.107 205.253C543.573 201.04 545.293 196.533 549.56 194.92Z" fill="white"/>
<path d="M113.427 201C117.627 204.667 121.52 208.827 125.333 212.893C122.507 216.813 121 221.027 116.48 223.16L117.333 225.427C114.893 226.307 112.453 227.147 109.973 227.893C107.627 232.16 106.08 236.707 104.507 241.293C102.32 241.28 100.12 241.267 97.9334 241.253C97.2134 226.64 103.56 211.64 113.427 201Z" fill="white"/>
<path d="M202.347 201.52C203.814 202.96 205.267 204.4 206.72 205.84C205.307 206.467 201.187 206.413 200.907 208.48C200.28 210.813 199.84 213.2 199.254 215.533C200.627 215.027 201.947 214.427 203.28 213.827C202.587 212.013 201.907 210.187 201.24 208.373C202.387 209.053 203.547 209.76 204.68 210.453C204.56 208.133 205.04 206.987 206.147 207.027C207.12 207.853 208.08 208.707 209.014 209.587C208.747 211.147 208.44 212.68 208.36 214.267C209.747 215.48 211.36 216.467 212.907 217.453C213.92 220 214.894 222.573 215.907 225.12C213.907 227.907 212.294 230.36 209 231.787C209.454 229.947 209.88 228.107 210.267 226.267C211.147 224.093 207.68 223.32 206.374 222.533C205.32 224.24 204.267 225.933 203.214 227.64C201.214 223.987 198.68 220.773 196.054 217.56C195.12 217.653 194.187 217.747 193.254 217.84C192.4 215.987 189.854 213.787 191.654 211.747C194.707 208.04 198.454 204.347 202.347 201.52Z" fill="white"/>
<path d="M754.4 213.413C754.347 218.36 755.267 224.067 752.494 228.4C750.267 233.227 743.094 234.293 738.8 231.853C734.267 228.453 734.121 220.893 738.521 217.28C742.921 213.893 749.08 214.187 754.4 213.413Z" fill="white"/>
<path d="M162.093 215.867C162.013 225.6 162.48 235.4 161.866 245.12C160.96 252.16 161.266 259.16 161.266 266.24C158.706 266.973 156.146 267.72 153.586 268.48C153.466 251.653 153.453 234.813 153.506 218C156.36 217.253 159.226 216.533 162.093 215.867Z" fill="#322625" fill-opacity="0.52"/>
<path d="M186.907 215.587C188.747 216.973 189.867 218.787 191 220.747L187.707 220.453C187.573 221.44 187.44 222.427 187.293 223.4C186.587 222.347 185.92 221.267 185.267 220.16C185.76 218.6 186.293 217.08 186.907 215.587Z" fill="white"/>
<path d="M149.84 218.787C150.026 222.8 150.653 226.2 148.186 229.693C149.013 231.12 149.853 232.533 150.693 233.96C148.666 232.547 146.64 231.133 144.6 229.747C144.746 227.813 144.76 225.787 145.24 223.907C146.093 221.853 148.266 220.28 149.84 218.787Z" fill="#322625" fill-opacity="0.52"/>
<path d="M306.693 219.547C307.226 225.6 308.8 231.773 308.493 237.827C307.773 244.08 307.08 250.16 303.6 255.547C297.946 265.32 288.666 271.467 283.6 281.733C283.6 277.173 283.933 272.32 282.68 267.947C279.76 257.493 273.4 248.653 271.746 237.88C271.24 233.867 270.986 229.813 270.72 225.773C274.04 229.12 276.253 233.067 279.16 236.773C282.96 241.72 285.733 247.267 286.64 253.48C287.253 258.013 287.106 262.68 287.213 267.24C289.666 259.693 292.08 252.44 296.106 245.533C300.906 237.04 305.853 229.6 306.693 219.547Z" fill="#322625" fill-opacity="0.52"/>
<path d="M8.06666 220.013C8.62666 222.107 9.21333 224.187 9.84 226.253C11.4667 231.413 13.72 236.147 16.6133 240.72C21.0533 247.813 24.32 255.427 27.3467 263.187C28.7733 256.8 28.5067 250.347 31.3867 244.76C34.84 237.44 40.2 232.187 44.3867 225.093C44.28 229.84 44.3867 234.347 43.44 239.027C41.8933 247.427 37.44 254.813 34.4133 262.693C32.2 268.427 31.6 274.187 31.0133 280.24C23.4267 267.6 12.88 261.92 8.66666 248.68C5.61333 238.88 7.68 229.947 8.06666 220.013Z" fill="#322625" fill-opacity="0.52"/>
<path d="M217.52 226.4C216.48 229.6 215.453 232.8 214.48 236.013C215.52 234.627 216.573 233.24 217.613 231.84C217.653 234.613 217.68 237.4 217.72 240.173C216.28 240.507 214.84 240.84 213.4 241.173C209.84 240.613 206.266 240.373 202.68 240.213C204.946 238.347 206.666 236.693 207.786 233.92C209.76 233.067 211.76 232.267 213.68 231.333C214.986 229.707 216.266 228.067 217.52 226.4Z" fill="white"/>
<path d="M109.894 234.507C111.787 234.293 113.72 234.307 115.614 234.267C115.214 236.627 114.68 238.933 114.027 241.24C112.054 240.387 110.067 239.547 108.134 238.587C108.667 237.213 109.2 235.8 109.894 234.507Z" fill="white"/>
<path d="M77.1064 244.773C82.4798 244.76 87.8664 244.76 93.2398 244.76C93.5998 245.947 93.9597 247.133 94.3197 248.32C92.1197 251.227 89.3197 254.133 87.9464 257.547C87.5064 260.24 87.5731 263.013 87.1598 265.707C84.9064 266.36 82.6797 266.427 80.3464 266.587C78.3331 259.44 76.9598 252.24 77.1064 244.773Z" fill="white"/>
<path d="M164.867 242.693C170.094 244.547 174.987 246.373 179.24 250.08C185.76 256.76 184.867 268.96 176.374 273.627C168.334 278.08 158.92 279.04 150.907 283.853C150.947 287.96 150.92 292.067 150.814 296.173C147.827 294.067 144.654 292.28 143.054 288.813C140.96 284.307 142.494 278.707 146.587 275.92C153.054 271.267 160.347 270.52 167.187 267.213C169.84 265.973 170.84 263.507 172.44 261.213C170.307 257.987 168.294 256.253 164.894 254.427C164.8 250.52 164.8 246.6 164.867 242.693Z" fill="#322625" fill-opacity="0.52"/>
<path d="M56.293 244.773C61.7863 244.773 67.2796 244.787 72.773 244.68C74.0663 251.693 74.3063 258.747 76.453 265.64C73.5863 265.813 70.733 266.053 67.8796 266.4C67.533 265.72 67.1996 265.04 66.853 264.36C65.7063 264.92 64.5463 265.493 63.3996 266.053C62.9996 267.133 62.5996 268.213 62.1996 269.293C63.693 275.307 65.8396 280.333 68.933 285.667C67.973 282.133 67.0663 278.6 66.3863 275C69.8396 278.067 72.6396 278.76 77.133 279.293C77.3463 280.08 77.5463 280.853 77.7596 281.627C79.8663 283.653 81.5863 285.84 83.1996 288.267C84.133 287.84 85.053 287.427 85.973 287C89.1463 292.307 93.1996 296.853 97.1063 301.613C93.1463 305.627 89.1463 309.6 85.1596 313.587C67.373 295.533 56.293 270.187 56.293 244.773Z" fill="white"/>
<path d="M97.9867 244.747L102.32 244.88C102.147 247.24 102.067 249.64 101.707 251.987C100.493 252.387 99.2533 252.747 98.0133 253.067C97.9867 250.293 97.9733 247.52 97.9867 244.747Z" fill="white"/>
<path d="M111.933 244.613C111.186 250.08 108.466 254.08 112.32 258.96C112.466 256.587 112.226 255.52 111.08 253.48C111.906 250.213 112.76 246.947 113.626 243.68C115.906 254.293 118.706 264.187 126.4 272.267C122.413 276.333 118.4 280.373 114.333 284.36C113.386 282.947 111.6 281.347 111.48 279.587C110.88 274.493 109.373 269.627 108.746 264.52C107.986 259.68 106.493 256.027 103.64 252.067C103.48 250.133 103.32 248.213 103.146 246.28C106.093 245.32 108.84 244.813 111.933 244.613Z" fill="white"/>
<path d="M205.294 244.853C209.494 244.773 213.694 244.76 217.894 244.8C217.28 253.293 215.734 261.52 211.694 269.093C208.8 274.56 205.347 280.893 200.16 284.453C199.787 281.2 199.494 277.933 199.187 274.667C198.227 275.96 197.294 277.267 196.334 278.56C195.934 278.16 195.534 277.76 195.12 277.347C196.84 273.373 197.614 269.4 197.88 265.093C196.96 264.4 196.027 263.707 195.094 263.013C197.107 260 199.187 257.653 201.987 255.36C204.92 255.067 207.667 254.507 210.48 253.653C211.374 251.867 212.534 250.347 213.707 248.747C212.187 249.253 210.667 249.733 209.134 250.2C208.174 249.613 207.214 249.013 206.254 248.413C205.934 247.227 205.614 246.04 205.294 244.853Z" fill="white"/>
<path d="M222.12 244.76C227.587 244.76 233.067 244.747 238.547 244.8C238.827 264.707 229.64 284.893 215.76 298.987C214.934 295.253 214.614 291.36 213.52 287.693C213.147 286.467 212.214 285.693 210.747 285.373C210.147 287.333 209.774 289.28 209.334 291.293C207.654 289.773 205.974 288.253 204.28 286.733C207.494 282.493 210.867 278.213 213.6 273.653C218.707 264.653 220.84 254.933 222.12 244.76Z" fill="white"/>
<path d="M242.054 244.8C247.84 244.747 253.627 244.733 259.414 244.787C259.08 269.493 248.44 295.6 230.734 312.96C226.787 309.107 222.867 305.213 219.014 301.267C223.48 295.4 228.214 290.293 231.707 283.72C238.107 271.693 242.374 258.56 242.054 244.8Z" fill="white"/>
<path d="M118.453 248.427C119.733 248.8 121.013 249.187 122.293 249.587C124.16 250.24 126 250.973 127.853 251.667C128.48 252.867 129.106 254.053 129.746 255.253C130.4 253.933 131.066 252.613 131.72 251.293C132.6 252.133 133.48 252.973 134.346 253.8C133.786 255.2 133.24 256.6 132.693 258.013C134.533 256.693 136.066 255.253 137.56 253.56C138.72 254.827 139.92 256.12 141.08 257.387C137.093 261.44 133.133 265.52 129.146 269.573C124.52 264.8 121.053 259.027 119.373 252.587C119.053 251.2 118.746 249.813 118.453 248.427Z" fill="white"/>
<path d="M5.58669 254.387C7.12002 260.32 10.4667 264.987 14.6 269.373C23.16 278.52 31.8 287.28 38.0934 298.24C37.3334 292.093 35.96 286.107 36.8534 280C37.72 271.08 41.84 263.12 43.0667 254.227C48.2267 265.2 47.1867 276.08 45.6534 287.733C44.3467 296.453 45.1734 305.107 46.96 313.693C37.6267 305.227 26.16 300.32 17.4667 290.493C8.97336 280.867 5.08002 267.08 5.58669 254.387Z" fill="#322625" fill-opacity="0.52"/>
<path d="M271.907 254C273.08 259.12 274.4 264.12 276.107 269.093C279.347 278.133 278.614 288.56 277.414 297.947C283.787 287.36 291.974 278.667 300.534 269.853C304.334 265.867 306.894 261.24 309.72 256.56C310.32 272.053 303.254 286.933 291.334 296.733C284.174 303.293 273.92 307.013 268.32 314.733C269.534 307.44 271.147 299.413 270.16 292.04C268.694 279.8 267.227 265.667 271.907 254Z" fill="#322625" fill-opacity="0.52"/>
<path d="M164.947 258.013C166.254 259.04 167.547 260.107 168.76 261.24C167.8 262.92 166.347 263.987 164.88 265.16C164.854 262.773 164.88 260.4 164.947 258.013Z" fill="#322625" fill-opacity="0.52"/>
<path d="M757.986 258.773C762.586 258.733 767.173 258.747 771.76 258.747C771.76 263.36 771.76 267.96 771.746 272.56C767.16 272.547 762.573 272.547 758 272.533C757.96 267.947 757.96 263.36 757.986 258.773Z" fill="#322625" fill-opacity="0.52"/>
<path d="M598.373 258.8C603 258.733 607.613 258.733 612.24 258.76C612.253 263.347 612.28 267.947 612.28 272.533C607.64 272.547 603.013 272.547 598.386 272.52C598.36 267.947 598.36 263.373 598.373 258.8Z" fill="#322625" fill-opacity="0.52"/>
<path d="M355.187 263.293C364.014 261.133 373.76 261.12 381.494 266.56C392.214 274.067 395.747 287.493 395.467 300C395.96 311.08 393.667 321.92 386.907 330.893C377.667 341.84 359.134 343.693 348.014 334.613C340.774 329.213 336.88 319.48 335.694 310.787C333.534 298.707 335.374 285.333 341.547 274.64C344.947 269.987 349.6 265.16 355.187 263.293Z" fill="#322625" fill-opacity="0.52"/>
<path d="M737.933 267.213C737.96 272.467 737.96 277.72 738.013 282.987C741.746 283.013 745.466 283.027 749.2 283.027C749.2 286.173 749.2 289.32 749.213 292.467C745.466 292.987 741.76 293.373 737.986 293.627C737.973 301.973 738 310.32 737.906 318.667C737.786 322.04 738.493 325.187 739.453 328.387C742.906 329.733 745.64 330.013 749.333 329.72C749.24 332.787 749.173 335.853 749.12 338.907C742.4 340.693 734.44 341.227 728.746 336.587C725.04 332.253 724.04 325.52 724.12 320C724.186 311.133 724.12 302.28 724.186 293.413C721.306 292.947 718.533 292.813 715.626 292.893C715.533 289.627 715.466 286.36 715.413 283.093C718.266 283.04 721.12 283 723.973 282.96C724.346 279.027 724.8 275.12 725.146 271.187C729.413 269.88 733.693 268.587 737.933 267.213Z" fill="#322625" fill-opacity="0.52"/>
<path d="M373.693 275.64C380.747 282.16 380.84 292.467 381.187 301.333C380.707 308.467 381.093 315.013 377.573 321.533C374.587 328.547 365.387 332.307 358.707 327.933C351.947 323.373 350.347 314.267 349.56 306.733C349.04 297.533 349.427 285.467 355.2 277.8C359.813 271.773 367.827 270.667 373.693 275.64Z" fill="white"/>
<path d="M185.533 275.48C188.12 276.72 190.52 278.467 192.88 280.093C189.733 279.64 186.653 279.053 183.6 278.147C184.213 277.24 184.853 276.347 185.533 275.48Z" fill="white"/>
<path d="M430.08 281.907C430.106 286.267 430.079 290.64 430.026 295C425.919 295.147 422.306 294.64 418.853 297.4C414.92 301.187 414.746 306.88 414.493 311.987C414.426 321.12 414.546 330.24 414.426 339.373C410.16 339.347 405.893 339.36 401.626 339.373C401.52 324.92 401.533 310.467 401.613 296C401.653 291.653 401.146 287.373 400.52 283.08C404.906 283.027 409.306 283.027 413.693 283.067C413.666 286.24 413.613 289.387 413.533 292.547C417.466 285.333 421.813 282.16 430.08 281.907Z" fill="#322625" fill-opacity="0.52"/>
<path d="M879.174 287.56C882.68 291.827 883.187 298.627 883.56 303.933C883.707 315.747 883.587 327.56 883.6 339.36C879.014 339.347 874.44 339.36 869.854 339.373C869.734 327.107 869.947 314.827 869.774 302.56C869.827 298.547 867.72 296.013 865.214 293.173C862.347 293.507 858.627 292.947 856.454 295.133C853.16 298.347 852.307 303.56 852.427 307.973C852.507 318.427 852.48 328.88 852.454 339.32C847.92 339.347 843.387 339.36 838.867 339.413C838.294 320.64 838.68 301.853 838.587 283.08C842.92 283.027 847.24 283.027 851.574 283.04C851.587 285.733 851.6 288.413 851.6 291.107C853.854 288.4 855.6 285.747 858.814 284.107C865.04 280.573 874.8 281.453 879.174 287.56Z" fill="#322625" fill-opacity="0.52"/>
<path d="M161.04 282.533C161.333 289.347 161.747 296.053 160.693 302.827C159.973 313.013 160.68 323.293 160.4 333.507C160.467 336.453 158.627 338.533 157.253 341.027C153.493 333.8 156.027 323.947 155.147 315.947C153.907 305.747 154.333 295.6 154.4 285.36C156.627 284.44 158.827 283.48 161.04 282.533Z" fill="#322625" fill-opacity="0.52"/>
<path d="M463.16 284.92C465.973 286.6 467.187 289.2 468.947 291.853C469.027 288.92 469.12 286 469.227 283.067C473.573 283.027 477.92 283.027 482.253 283.067C480.253 295.147 481.653 307.773 481.24 320C480.813 329.48 482.6 340.6 479.2 349.493C476.973 355.84 471.933 360.96 465.293 362.52C455.88 364.947 445.24 363.627 436.227 360.133C436.253 356.16 436.307 352.173 436.467 348.2C441.253 350.16 445.44 352.387 450.733 352.667C455.653 352.907 461.467 353.093 464.693 348.653C468.333 343.92 468.133 336.013 468.413 330.347C465.613 333.587 463.053 337.693 458.627 338.827C454.587 339.76 449.72 339.84 445.867 338.16C440.813 335.453 436.947 330.507 435.453 324.973C433.427 317.267 433.013 309.173 434.573 301.333C435.56 295.573 438.213 288.973 443.013 285.36C448.987 281.44 457.107 280.627 463.16 284.92Z" fill="#322625" fill-opacity="0.52"/>
<path d="M522.093 283.48C528.253 285.88 532.133 291.973 532.4 298.507C532.893 312.013 531.666 325.987 533.36 339.36C529.32 339.347 525.266 339.36 521.226 339.413C520.786 337.107 520.386 334.813 519.986 332.507C517.08 335.24 514.733 337.987 510.786 339.227C503.52 341.68 494.133 339.48 490.186 332.467C484.986 324.653 487.853 312.6 496.173 308.147C504.173 303.947 511.84 304.693 520.533 304.667C520.026 301.853 519.653 298.88 518.693 296.187C517.8 293.52 514.453 292.613 512.04 291.933C505.866 290.427 499.706 294.04 494.4 296.747C493.786 293.04 493.466 289.427 493.466 285.653C502.8 282.147 512.346 280.653 522.093 283.48Z" fill="#322625" fill-opacity="0.52"/>
<path d="M542.946 283.173C547.186 282.84 551.48 283.027 555.733 283.027C555.813 285.52 555.893 288 555.96 290.48C558.773 287.787 561.266 284.827 564.933 283.253C571.266 280.733 578.866 282.04 583.626 287.053C587.12 291.4 587.933 297.253 587.933 302.667C587.88 314.907 587.946 327.147 587.853 339.387C583.28 339.36 578.706 339.347 574.12 339.347C574.133 328 574.066 316.653 574.16 305.307C574.093 302.28 574.266 299.4 572.64 296.693C570.28 291.867 561.96 292.227 559.4 296.653C556.92 300.573 556.72 306.16 556.706 310.667C556.773 320.24 556.773 329.813 556.72 339.373C552.413 339.36 548.106 339.36 543.786 339.347C543.36 320.653 544.573 301.8 542.946 283.173Z" fill="#322625" fill-opacity="0.52"/>
<path d="M598.4 283.04C603.026 283.013 607.64 283.013 612.267 283.053C612.293 301.827 612.32 320.587 612.267 339.36C607.667 339.347 603.066 339.373 598.48 339.4C598.24 320.613 598.373 301.827 598.4 283.04Z" fill="#322625" fill-opacity="0.52"/>
<path d="M622.906 283.2C635.2 282.773 647.56 283.133 659.866 283.04C659.88 286.853 660.16 290.773 659.626 294.56C658.12 298.307 655.04 301.467 652.88 304.88C647.533 313.013 641.986 321 636.466 329.027C644.6 329.04 652.72 328.907 660.84 329.12C660.8 332.533 660.786 335.947 660.76 339.36C648.2 339.373 635.64 339.293 623.08 339.4C622.693 336.84 622.293 334.293 621.76 331.76C622.493 328.387 623.533 325.693 625.613 322.92C632.613 313.227 639.28 303.333 646.026 293.48C638.266 293.347 630.506 293.493 622.746 293.24C622.706 289.92 622.573 286.52 622.906 283.2Z" fill="#322625" fill-opacity="0.52"/>
<path d="M688 282.04C695.186 281.853 703.56 283.173 707.44 290C711.36 296.893 709.946 306.973 710.186 314.667C710.453 322.787 709.373 331.453 711.173 339.32C706.84 339.413 702.52 339.36 698.2 339.093C698.133 336.507 698.066 333.933 698 331.347C695.693 334.173 693.866 337.133 690.32 338.533C682.92 341.92 672.906 340.107 668.2 333.133C662.533 325 665.053 311.973 674.493 307.867C681.92 304.013 689.306 304.613 697.373 304.707C697.08 301.507 697.64 297.88 695.573 295.2C694.226 293.04 691.733 292.347 689.413 291.747C682.533 290.987 677.066 293.84 671.4 297.24C671.306 293.44 671.253 289.627 671.2 285.827C676.653 283.667 682.04 281.827 688 282.04Z" fill="#322625" fill-opacity="0.52"/>
<path d="M758.133 283.2C762.64 282.787 767.24 283.053 771.773 283.067C771.733 301.827 771.813 320.6 771.733 339.373C767.16 339.36 762.587 339.347 758.013 339.333C758.067 320.64 757.72 301.867 758.133 283.2Z" fill="#322625" fill-opacity="0.52"/>
<path d="M798.76 282.307C807.453 281.24 817.346 283 822.746 290.56C827.773 297.12 828.32 305.373 828.226 313.347C828.133 320.8 825.64 329.533 820.16 334.84C811.413 341.64 798.453 341.933 789.04 336.32C783.04 332.32 779.76 324.347 779 317.4C778.146 308.24 778.733 298.68 784.24 290.96C787.666 286.16 793.04 283.32 798.76 282.307Z" fill="#322625" fill-opacity="0.52"/>
<path d="M264.28 284.973C264.586 292.653 264.426 300.347 264.493 308.027C264.693 314.067 262.333 319.267 260.306 324.853C269.266 315.96 282.4 312.773 292.213 304.227C296.386 300.68 299.693 296.413 302.933 292.013C300.48 299.627 298.466 307.04 293.84 313.68C288.866 321.373 281.333 327.04 272.72 330.08C263.186 333.84 253.586 334 244.64 339.413C252.36 329.173 251.053 318.613 254.2 306.933C256.213 299.08 259.546 291.573 264.28 284.973Z" fill="#322625" fill-opacity="0.52"/>
<path d="M51.0796 284.467C52.1196 286.293 53.1463 288.133 54.173 289.973C59.8796 299.827 62.4796 310.72 63.6796 321.96C64.3196 328.04 66.9996 333.133 69.653 338.52C57.093 332.867 44.893 333.187 33.3196 325.453C21.0396 317.48 15.613 304.533 11.9463 290.933C14.7463 295.24 17.173 299.493 21.213 302.827C31.3996 311.453 44.8396 316.187 55.3196 324.56C53.373 320.56 51.693 316.52 51.1463 312.067C49.3463 302.88 52.1063 293.853 51.0796 284.467Z" fill="#322625" fill-opacity="0.52"/>
<path d="M201.893 289.427C205.68 293.507 209.64 297.427 213.6 301.333C208.84 305.147 204.707 309.267 199.053 311.8C199.76 309.24 200.613 307.04 202.32 304.96C201.507 304.253 200.693 303.533 199.88 302.813C201.12 300.747 203.24 298.52 203.667 296.147C203.507 293.907 199.547 292.987 197.96 291.84C199.267 291.04 200.573 290.227 201.893 289.427Z" fill="white"/>
<path d="M465.854 298.107C469.427 306.293 468.974 316.307 465.8 324.52C463.094 329.507 458.667 328.76 453.76 329.173C452.24 327.213 450 325.12 449.36 322.667C447.627 316.093 446.867 309.36 448.307 302.64C449.067 298.707 450.16 294.56 454.387 293.107C459.014 291.293 463.734 293.84 465.854 298.107Z" fill="white"/>
<path d="M803.733 291.547C808.28 292.573 810.307 294.2 812.293 298.387C815.053 305.48 814.813 313.947 813.147 321.267C812.24 325.4 809.493 329.16 805.48 330.72C801.307 331.24 796.587 328.853 795.187 324.707C791.787 316.293 791.813 305.32 795.52 297C797.013 293.173 800.307 292.8 803.733 291.547Z" fill="white"/>
<path d="M95.7734 294.2C98.8134 294.027 100.2 294.88 102.48 296.627C101.507 297.427 100.533 298.24 99.5601 299.053C98.2401 297.453 96.9334 295.907 95.7734 294.2Z" fill="white"/>
<path d="M163.827 294.973C167.8 297.173 171.48 299.467 174.013 303.373C176.693 307.4 176.707 312.053 177.213 316.707C175.987 314.24 174.88 311.6 173.28 309.373C170.627 305.933 167.267 303.987 163.867 301.453C163.813 299.293 163.8 297.133 163.827 294.973Z" fill="#322625" fill-opacity="0.52"/>
<path d="M519.48 311.387C519.654 316.933 520.454 323.933 516.28 328.293C513.267 331.627 509.227 330.533 505.147 330.947C502.654 328.08 499.974 325.853 500.454 321.64C500.92 319.293 501.787 316.053 504.014 314.773C508.454 312.187 514.44 311.627 519.48 311.387Z" fill="white"/>
<path d="M697.2 311.453C697.533 317.467 697.12 322.293 695.013 327.933C690.947 330.96 687.613 330.947 682.707 330.84C681.16 329.027 679.493 327.28 678.36 325.187C677.347 320.853 678.267 316.667 682.28 314.267C686.853 312.067 692.213 311.733 697.2 311.453Z" fill="white"/>
<path d="M68.2668 313.333C74.7068 318.227 79.9335 324.827 84.7335 331.293C90.8401 339.68 91.6535 350.853 98.3335 358.387C90.5601 355.16 83.9735 358.107 76.0135 357.667C64.1735 357.08 52.9601 354.92 43.7601 346.92C37.9735 342.333 34.7735 336.28 30.8135 330.253C45.8401 344.067 65.9068 339.56 84.3335 349.427C78.7068 343.093 73.8001 336.747 71.8135 328.307C70.7468 323.267 69.6535 318.293 68.2668 313.333Z" fill="#322625" fill-opacity="0.52"/>
<path d="M247.853 311.947C244.4 319.707 244.813 327.947 240.906 335.48C238.64 340.747 235.186 345.12 231.08 349.08C245.373 342.107 260.933 342.72 275.32 336.627C279.306 334.96 281.826 332.04 284.88 329.147C279.92 338.227 274.013 346.413 264.706 351.453C256.16 356.547 247.066 357.24 237.333 357.693C230.573 357.56 224.466 355.707 217.72 357.747C221.173 352.333 223.426 346.427 225.72 340.467C229.293 331.267 235.466 324.2 242.546 317.533C244.333 315.693 246.106 313.827 247.853 311.947Z" fill="#322625" fill-opacity="0.52"/>
<path d="M125.333 355.867C131.933 355.853 138.8 355.547 145.307 356.693C149.507 357.4 153.547 359.2 157.747 359.693C163.04 358.893 167.92 356.493 173.36 356.16C183.267 355.547 193.627 355.493 203.373 357.507C213.547 359.2 223.067 362.76 233.267 364.24C241.12 365.173 248.893 364.973 256.48 362.6C251.4 367.067 245.187 370.36 238.72 372.293C230.8 374.627 222.867 374.12 214.6 374.053C198.6 373.28 182.653 363.813 166.773 363.72C175.28 369.587 185.72 375.44 191.4 384.36C188.867 384.44 186.333 384.493 183.8 384.533C178.16 375.4 168.293 366.413 157.307 365.067C146.04 367.56 137.4 375.013 131.613 384.8C128.987 384.573 126.36 384.36 123.72 384.107C130.507 375.227 139.413 369.56 148.733 363.733C132.573 363.707 116.347 373.6 100.067 374.04C90.9601 374.147 82.5735 374.773 73.8935 371.427C67.5201 369.48 62.5468 365.613 57.4668 361.48C61.7201 363.307 65.9468 364.8 70.6668 364.693C88.8268 365.747 107.067 356.107 125.333 355.867Z" fill="#322625" fill-opacity="0.52"/>
</svg>
